# xmcd CD database file
#
# Track frame offsets:
#	150
#	19436
#	39061
#	64960
#	90100
#	112904
#	131062
#	151021
#	168825
#	192794
#
# Disc length: 3365 seconds
#
# Revision: 0
# Processed by: cddbd v1.5PL3 Copyright (c) Steve Scherf et al.
# Submitted via: CDex 1.51
#
DISCID=6d0d230a
DTITLE=Barry Andrews - Mind Over Matter
DYEAR=2004
DGENRE=Jazz
TTITLE0=Going All Out The Box
TTITLE1=His Eye Is On The Sparrow
TTITLE2=Trespass
TTITLE3=Mind Over Matter
TTITLE4=Hypnosis
TTITLE5=Song For Robert Lee
TTITLE6=Felicia
TTITLE7=Footprints
TTITLE8=Why Not Me
TTITLE9=In The Beginning
EXTD=YEAR: 2004
EXTT0=
EXTT1=
EXTT2=
EXTT3=
EXTT4=
EXTT5=
EXTT6=
EXTT7=
EXTT8=
EXTT9=
PLAYORDER=
